<svg xmlns="http://www.w3.org/2000/svg" width="83" height="83" viewBox="0 0 83 83"><g><g><g><path fill="#161615" d="M74.191 41.5c0 18.025-14.666 32.69-32.692 32.69-18.024 0-32.69-14.665-32.69-32.69 0-18.027 14.666-32.69 32.69-32.69 18.026 0 32.692 14.663 32.692 32.69zm8.81 0C83 18.616 64.382 0 41.498 0 18.617 0 0 18.617 0 41.5S18.617 83 41.5 83 83 64.383 83 41.5z"/></g><g><path fill="#161615" d="M37.06 36.728l.004-7.597 8.92.004-.003 7.684 10.063 17.05-9.362-.004-4.855-8.716h-.677l-4.861 8.713-9.333-.005z"/></g></g></g></svg>